<?xml version="1.0" encoding="utf-8"?>
<!-- Generator: Adobe Illustrator 20.0.0, SVG Export Plug-In . SVG Version: 6.00 Build 0)  -->
<svg version="1.1" id="Layer_1" xmlns="http://www.w3.org/2000/svg" xmlns:xlink="http://www.w3.org/1999/xlink" x="0px" y="0px"
	 viewBox="0 0 500 500" style="enable-background:new 0 0 500 500;" xml:space="preserve">
<style type="text/css">
	.st0{fill:#BCE680;}
	.st1{fill:none;stroke:#F0FDC5;stroke-linecap:round;stroke-linejoin:round;stroke-miterlimit:10;}
	.st2{fill:#8DC70C;}
	.st3{fill:#ECFE78;}
	.st4{fill:#73953B;}
	.st5{fill:#3D710C;}
	.st6{fill:#73953B;stroke:#3D710C;stroke-width:3;stroke-linejoin:round;stroke-miterlimit:10;}
	.st7{fill:#EFE8D7;stroke:#DABB95;stroke-width:3;stroke-linejoin:round;stroke-miterlimit:10;}
	.st8{opacity:0.6;fill:none;stroke:#BF71B0;stroke-width:3;stroke-miterlimit:10;}
	.st9{opacity:0.4;fill:none;stroke:#BF71B0;stroke-width:3;stroke-miterlimit:10;}
	.st10{opacity:0.3;fill:none;stroke:#BF71B0;stroke-width:3;stroke-miterlimit:10;}
	.st11{opacity:0.2;fill:none;stroke:#BF71B0;stroke-width:3;stroke-miterlimit:10;}
	.st12{opacity:0.1;fill:none;stroke:#BF71B0;stroke-width:3;stroke-miterlimit:10;}
	.st13{fill:#77A45B;}
	.st14{fill:none;stroke:#FFFFFF;stroke-linecap:round;stroke-linejoin:round;stroke-miterlimit:10;}
	.st15{fill:#00FFFF;}
	.st16{fill:#E50F4F;}
	.st17{fill:#5A8700;}
	.st18{fill:#9D9F01;}
	.st19{fill:none;stroke:#BFBF04;stroke-linecap:round;stroke-linejoin:round;stroke-miterlimit:10;}
	.st20{fill:none;stroke:#CAD058;stroke-linecap:round;stroke-linejoin:round;stroke-miterlimit:10;}
	.st21{fill:#E21039;stroke:#930019;stroke-width:3;stroke-linejoin:round;stroke-miterlimit:10;}
	.st22{fill:#77A45B;stroke:#3D710C;stroke-linecap:round;stroke-linejoin:round;stroke-miterlimit:10;}
	.st23{fill:none;stroke:#77A45B;stroke-width:3;stroke-miterlimit:10;}
	.st24{opacity:0.5;fill:none;stroke:#FFFFFF;stroke-width:3;stroke-linejoin:round;stroke-miterlimit:10;}
	.st25{opacity:0.7;fill:none;stroke:#FFFFFF;stroke-width:3;stroke-linejoin:round;stroke-miterlimit:10;}
	.st26{opacity:0.9;fill:none;stroke:#FFFFFF;stroke-width:3;stroke-linejoin:round;stroke-miterlimit:10;}
	.st27{opacity:0.3;fill:none;stroke:#FFFFFF;stroke-width:3;stroke-linejoin:round;stroke-miterlimit:10;}
	.st28{opacity:0.2;fill:none;stroke:#FFFFFF;stroke-width:3;stroke-linejoin:round;stroke-miterlimit:10;}
	.st29{fill:#E21039;}
	.st30{fill:#930019;}
	.st31{fill:#F4E5E8;}
	.st32{fill:#DEB2BA;}
	.st33{fill:#C8818D;}
	.st34{fill:#B14D5F;}
	.st35{fill:#FFFFFF;}
	.st36{fill:#EFE8D7;}
	.st37{fill:#DABB95;}
	.st38{fill:#E50F4F;stroke:#930019;stroke-width:3;stroke-linejoin:round;stroke-miterlimit:10;}
	.st39{fill:none;stroke:#E87C94;stroke-width:3;stroke-linejoin:round;stroke-miterlimit:10;}
	.st40{fill:none;stroke:#E64872;stroke-width:3;stroke-linejoin:round;stroke-miterlimit:10;}
	.st41{fill:none;stroke:#EBB2B6;stroke-width:3;stroke-linejoin:round;stroke-miterlimit:10;}
	.st42{fill:none;stroke:#930019;stroke-width:3;stroke-linejoin:round;stroke-miterlimit:10;}
	.st43{fill:#E87C94;}
	.st44{fill:#E64872;}
	.st45{fill:#EBB2B6;}
	.st46{opacity:0.7;fill:none;stroke:#E50F4F;stroke-width:3;stroke-linejoin:round;stroke-miterlimit:10;}
	.st47{opacity:0.6;fill:none;stroke:#E50F4F;stroke-width:3;stroke-linejoin:round;stroke-miterlimit:10;}
	.st48{opacity:0.4;fill:none;stroke:#E50F4F;stroke-width:3;stroke-linejoin:round;stroke-miterlimit:10;}
	.st49{opacity:0.3;fill:none;stroke:#E50F4F;stroke-width:3;stroke-linejoin:round;stroke-miterlimit:10;}
	.st50{opacity:0.2;fill:none;stroke:#E50F4F;stroke-width:3;stroke-linejoin:round;stroke-miterlimit:10;}
	.st51{opacity:0.1;fill:none;stroke:#E50F4F;stroke-width:3;stroke-linejoin:round;stroke-miterlimit:10;}
	.st52{fill:none;stroke:#DABB95;stroke-width:3;stroke-linejoin:round;stroke-miterlimit:10;}
	.st53{fill:#77A45B;stroke:#3D710C;stroke-width:0.9521;stroke-linecap:round;stroke-linejoin:round;stroke-miterlimit:10;}
	.st54{fill:#E76886;}
	.st55{fill:#E87D94;}
	.st56{fill:#E992A2;}
	.st57{fill:#EBA7AF;}
	.st58{fill:#ECBDBD;}
	.st59{fill:#EDD2CA;}
	.st60{opacity:0.6;fill:#BF71B0;}
	.st61{opacity:0.5;fill:#BF71B0;}
	.st62{opacity:0.4;fill:#BF71B0;}
	.st63{opacity:0.3;fill:#BF71B0;}
	.st64{opacity:0.2;fill:#BF71B0;}
	.st65{fill:#FCD24F;stroke:#BA8822;stroke-width:3;stroke-linejoin:round;stroke-miterlimit:10;}
	.st66{opacity:0.9;fill:none;stroke:#732429;stroke-width:3;stroke-miterlimit:10;}
	.st67{opacity:0.8;fill:none;stroke:#732429;stroke-width:3;stroke-miterlimit:10;}
	.st68{opacity:0.7;fill:none;stroke:#732429;stroke-width:3;stroke-miterlimit:10;}
	.st69{opacity:0.6;fill:none;stroke:#732429;stroke-width:3;stroke-miterlimit:10;}
	.st70{opacity:0.5;fill:none;stroke:#732429;stroke-width:3;stroke-miterlimit:10;}
	.st71{opacity:0.4;fill:none;stroke:#732429;stroke-width:3;stroke-miterlimit:10;}
	.st72{fill:none;stroke:#BA8822;stroke-width:3;stroke-linejoin:round;stroke-miterlimit:10;}
	.st73{fill:#FCD24F;}
	.st74{fill:#BA8822;}
	.st75{fill:#80352F;}
	.st76{fill:#8D4734;}
	.st77{fill:#9B5838;}
	.st78{fill:#A96A3D;}
	.st79{fill:#B77A42;}
	.st80{fill:#C48B47;}
	.st81{fill:#5B774B;}
	.st82{fill:none;stroke:#ECFE78;stroke-linecap:round;stroke-linejoin:round;stroke-miterlimit:10;}
	.st83{fill:none;stroke:#5B774B;stroke-miterlimit:10;}
	.st84{fill:none;stroke:#ECFE78;stroke-linecap:round;stroke-miterlimit:10;}
	.st85{fill:none;stroke:#5B774B;stroke-linejoin:round;stroke-miterlimit:10;}
	.st86{fill:none;stroke:#89A037;stroke-linecap:round;stroke-linejoin:round;stroke-miterlimit:10;}
	.st87{fill:none;stroke:#89A037;stroke-width:3;stroke-linecap:round;stroke-linejoin:round;stroke-miterlimit:10;}
	.st88{fill:none;stroke:#89A037;stroke-width:3.3343;stroke-linecap:round;stroke-linejoin:round;stroke-miterlimit:10;}
	.st89{fill:#F0FDC5;}
	.st90{fill:#839958;}
</style>
<path class="st0" d="M189.3,37.6c17.9-11.1,39.1-14.3,60-14.3c108,0,195.5,136.8,195.5,262s-87.5,191.4-195.5,191.4
	S53.8,410.5,53.8,285.3c0-45,11.3-91.5,30.8-132.6c0,0,36.2-75.4,90.5-74.5C175.1,78.2,162.7,54.1,189.3,37.6z"/>
<path class="st89" d="M71.5,189.9c37.2,0.6,69.2,13,94.9,36.9c19.3,17.9,27.7,35.9,27.8,36.1l0,0l7.2-3.3c-0.4-0.8-9-19.4-29.3-38.3
	c-18.7-17.5-51.4-38.5-100.4-39.3L71.5,189.9z"/>
<path class="st89" d="M60.7,321.7c22.8-7.8,45.4-7.1,67,2c16.2,6.8,25.8,16.1,25.9,16.3l5.6-5.6c-0.4-0.4-10.6-10.4-28.1-17.9
	c-16.2-6.9-42-12.9-73-2.3L60.7,321.7z"/>
<path class="st89" d="M362.9,82.3L362.9,82.3c-0.2,0.1-20.5,7.8-42.8,24.8c-20.4,15.5-46.8,42.3-56.6,81.5l-7.7-1.9
	c10.3-41.5,38.1-69.7,59.7-86.1c23.2-17.6,43.8-25.4,44.6-25.7L362.9,82.3z"/>
<path class="st89" d="M431,192c-39-4-73.3,10.4-95.2,23.2c-23.9,14-38.7,29.1-38.9,29.3l-5.7-5.5c0.6-0.6,15.6-16,40.4-30.5
	c23-13.4,59-28.6,100.2-24.4L431,192z"/>
<path class="st89" d="M327,303.2c2.6-1.2,63.2-29.7,122.1-7.9l-2.8,7.5c-55.8-20.7-115.3,7.3-115.9,7.6L327,303.2z"/>
<path class="st89" d="M417.9,402.5c-31.7-26.9-73.5-23-73.9-22.9l-0.8-7.9c1.8-0.2,45.6-4.3,79.8,24.8L417.9,402.5z"/>
<path class="st89" d="M321.8,280.5c-86.3-13.3-141.6,25.9-142.2,26.3l-4.7-6.4c0.6-0.4,14.8-10.6,40.3-19.2
	c23.4-7.9,61-15.7,107.8-8.5L321.8,280.5z"/>
<path class="st89" d="M159.9,425.9c36.7-47.3,86-65.8,120.9-73.1c38.1-7.9,67.8-4.5,68.1-4.5c2.2,0.3,3.1-7.6,0.9-7.9
	c-1.3-0.2-31.1-3.6-70.4,4.5c-36.3,7.5-87.7,26.8-125.9,76.1L159.9,425.9z"/>
<path class="st90" d="M397.3,100.5c-19.2-27.1-41.3-48.6-65.5-63.9c-26.4-16.7-54.2-25.2-82.5-25.2c-27.1,0-48.7,5.3-66.2,16.1
	c-18.9,11.7-23.6,27.5-22.8,40.2c-52.4,10.4-85,76.8-86.5,80c-20.6,43.4-32,92.4-32,137.7C41.8,348,63,400.4,103,436.8
	c36.7,33.4,88.7,51.8,146.3,51.8s109.5-18.4,146.3-51.8c40-36.4,61.2-88.8,61.2-151.5C456.8,221.1,435.1,153.7,397.3,100.5z
	 M65.7,285.3c0-41.9,10.5-87.2,29.6-127.5c8-16.7,33.7-56.6,65.6-65.8c3.7-1.1,7.7,0.6,9.6,4c15.9,28.8,44.7,63.9,62.8,84.9
	c-13.8,9.1-23.5,23.6-26.6,40c-1.4,7.4-5.2,13.4-10.9,16.9c-9.9,6.2-17.8,15-22.8,25.6c-3.5,7.3-5.5,15-5.9,23
	c-0.5,8.7-5.4,15.8-9.5,20.1c-14.7,15.8-20.3,36.1-15.2,54.4l0.9,3c5.3,18.8,7.1,25.1,1.8,41.7c-3.1,9.5-3.5,18.2-2.3,25.9
	c0.4,2.3-2.2,4-4.2,2.7c-7-4.6-13.5-9.6-19.6-15.1C84.1,387.4,65.7,341.1,65.7,285.3z M273.5,228.3c3.1,13.8,10.2,25.4,21.5,32.4
	c5.9,3.7,10.6,9,13.6,15.2c2.1,4.3,3.2,8.9,3.5,13.7c0.7,12.4,6.1,24.4,15.7,34.7c8.7,9.4,12.3,20.9,9.5,30.8l-0.8,3
	c-5.6,19.7-8.9,31.6-1.5,54.8c3.1,9.6,1.8,17.5-2.7,25.3c-5.6,9.7-15.1,16.6-26,19.4c-17.9,4.7-37,7.1-56.9,7.1
	c-17.5,0-34.4-1.9-50.4-5.5c-10.4-2.3-19.7-8.2-25.8-16.9c-6.4-9.1-8.6-18-5-29.2c7.6-23.5,4.2-35.6-1.5-55.7l-0.8-3
	c-2.8-10.1,0.8-21.8,9.6-31.3c9.7-10.5,15.3-22.7,16-35.3c0.3-4.8,1.5-9.5,3.6-13.9c3.1-6.4,7.8-11.8,13.8-15.5
	c11.4-7.2,19.2-18.9,21.8-33c1.4-7.4,4.9-14,9.9-19.2c5.5-5.6,14.5-5.8,20.3-0.7C265.7,209.8,270.9,216.8,273.5,228.3z M184.1,64.4
	c-0.1-6.6,3.9-12,11.5-16.7h0c13.6-8.4,31.2-12.5,53.7-12.5c23.7,0,47.2,7.2,69.7,21.5c21.3,13.5,41.6,33.4,58.8,57.6
	c34.5,48.6,55.1,112.5,55.1,171.1c0,55.8-18.5,102.1-53.4,133.8c-5,4.5-10.3,8.8-15.9,12.7c-1.6,1.1-3.8-0.2-3.6-2.2
	c0.9-7.2,0.4-15.2-2.4-24c-5.2-16.3-3.5-22.5,1.7-41l0.8-3c5-18-0.5-38-15-53.5c-4-4.3-8.9-11.2-9.4-19.8
	c-0.4-7.9-2.4-15.5-5.8-22.6c-5-10.4-12.7-19.1-22.4-25.2c-5.5-3.5-9.3-9.4-10.7-16.6c-2.9-15.5-11.8-29.3-24.5-38.3
	c-6.1-4.3-11.5-9.5-16.4-15.1c-18.9-21.6-56.4-66.3-69.6-96C186.4,74.6,184.2,69.5,184.1,64.4z"/>
</svg>