<?xml version="1.0" encoding="utf-8"?>
<!-- Generator: Adobe Illustrator 20.0.0, SVG Export Plug-In . SVG Version: 6.00 Build 0)  -->
<svg version="1.1" id="Layer_1" xmlns="http://www.w3.org/2000/svg" xmlns:xlink="http://www.w3.org/1999/xlink" x="0px" y="0px"
	 viewBox="0 0 200 200" style="enable-background:new 0 0 200 200;" xml:space="preserve">
<style type="text/css">
	.st0{fill:#90C400;}
	.st1{fill:#2B6000;}
	.st2{fill:#90C400;stroke:#2B6000;stroke-width:3;stroke-linecap:round;stroke-miterlimit:10;}
	.st3{fill:#90C400;stroke:#2B6000;stroke-linecap:round;stroke-linejoin:round;stroke-miterlimit:10;}
	.st4{fill:#68AB19;}
	.st5{fill:#074004;}
	.st6{fill:#94466D;stroke:#311538;stroke-width:3;stroke-miterlimit:10;}
	.st7{fill:#00FFFF;}
	.st8{fill:none;stroke:#311538;stroke-linecap:round;stroke-miterlimit:10;}
	.st9{fill:#F08A06;stroke:#DA5C00;stroke-width:3;stroke-miterlimit:10;}
	.st10{fill:none;stroke:#DA5C00;stroke-linecap:round;stroke-miterlimit:10;}
	.st11{fill:none;stroke:#FFFFFF;stroke-linecap:round;stroke-miterlimit:10;}
	.st12{fill:#FFFFFF;}
	.st13{fill:none;stroke:#074004;stroke-width:3;stroke-miterlimit:10;}
	.st14{fill:none;stroke:#A9C500;stroke-width:3;stroke-linecap:round;stroke-linejoin:round;stroke-miterlimit:10;}
	.st15{fill:#F08A06;}
	.st16{fill:#DA5C00;}
	.st17{fill:#94466D;}
	.st18{fill:#311538;}
	.st19{fill:#8DA54A;}
	.st20{fill:#3B6014;}
	.st21{fill:none;stroke:#F08A06;stroke-linecap:round;stroke-miterlimit:10;}
	.st22{display:none;fill:none;stroke:#FFFFFF;stroke-linecap:round;stroke-miterlimit:10;}
	.st23{display:none;fill:#FFFFFF;}
	.st24{fill:none;stroke:#311538;stroke-width:3;stroke-miterlimit:10;}
	.st25{fill:#3A7800;}
	.st26{fill:#A9C500;}
	.st27{fill:#105409;}
	.st28{fill:#A9C500;stroke:#2B6000;stroke-width:3;stroke-miterlimit:10;}
	.st29{fill:#A9C500;stroke:#2B6000;stroke-width:3;stroke-linecap:round;stroke-miterlimit:10;}
	.st30{fill:#A9C500;stroke:#2B6000;stroke-linecap:round;stroke-linejoin:round;stroke-miterlimit:10;}
	.st31{fill:#A9C500;stroke:#2B6000;stroke-width:9.5263;stroke-miterlimit:10;}
</style>
<path class="st15" d="M15.3,193.1c0,0,78-41.5,120.7-84.2c13.4-13.4,17.7-29.3,3.2-43.8c0,0,0,0,0,0c-14.5-14.5-30.2-10.4-43.8,3.2
	C46.1,117.6,11.2,189,11.2,189C9.2,191.7,12.6,195.1,15.3,193.1z"/>
<path class="st16" d="M142.9,61.8c-15-15-33.4-13.9-50.4,3.2C44.9,112.6,10.2,181.3,7.5,186.6c-1.9,3-1.6,6.9,1,9.5
	c1.5,1.5,3.4,2.2,5.4,2.2c1.5,0,2.9-0.4,4.2-1.3c2.4-1.3,21.2-11.4,44.4-26.1c22.9-14.5,54.8-36.4,77.2-58.8
	C156.8,95.2,157.9,76.8,142.9,61.8z M128.9,109.6c-3.3-4.2-7-8.4-10.8-12.5c-0.6-0.6-1.6-0.7-2.2-0.1c-0.6,0.6-0.7,1.6-0.1,2.2
	c3.9,4.1,7.5,8.3,10.8,12.5c-3.2,2.9-6.5,5.9-9.9,8.8c-3.3-4.2-7-8.5-10.9-12.6c-0.6-0.6-1.6-0.7-2.2-0.1c-0.6,0.6-0.7,1.6-0.1,2.2
	c3.9,4.1,7.5,8.3,10.8,12.5c-3.4,2.8-6.9,5.6-10.5,8.4c-3.1-3.8-6.4-7.6-9.9-11.4c-0.6-0.6-1.6-0.7-2.2-0.1s-0.7,1.6-0.1,2.2
	c3.4,3.6,6.7,7.4,9.7,11.1c-3.5,2.7-7,5.3-10.6,7.8c-2.7-3.2-5.5-6.4-8.4-9.5c-0.6-0.6-1.6-0.7-2.2-0.1s-0.7,1.6-0.1,2.2
	c2.9,3,5.6,6.1,8.2,9.2c-3.6,2.6-7.2,5.1-10.8,7.5c-2.1-2.5-4.3-4.9-6.6-7.3c-0.6-0.6-1.6-0.7-2.2-0.1c-0.6,0.6-0.7,1.6-0.1,2.2
	c2.2,2.3,4.2,4.6,6.3,7c-3.8,2.5-7.5,5-11.1,7.3c-1.9-2.2-3.9-4.3-5.9-6.4c-0.6-0.6-1.6-0.6-2.2,0c-0.6,0.6-0.6,1.6,0,2.2
	c1.9,1.9,3.7,3.9,5.5,5.9c-3.9,2.5-7.7,4.9-11.3,7.1c-1.2-1.3-2.4-2.6-3.7-3.9c-0.6-0.6-1.6-0.6-2.2,0c-0.6,0.6-0.6,1.6,0,2.2
	c1.1,1.1,2.1,2.2,3.2,3.4c-4.1,2.5-8,4.9-11.6,7c-0.7-0.7-1.3-1.4-2-2c-0.6-0.6-1.6-0.6-2.2,0c-0.6,0.6-0.6,1.6,0,2.2
	c0.5,0.5,1,1,1.4,1.5c-6.1,3.5-11,6.3-14.3,8.2c4-7.7,12.8-23.9,25-43.1c2.1,1.9,4.3,3.8,6.4,5.9c0.3,0.3,0.7,0.4,1.1,0.4
	c0.4,0,0.8-0.2,1.1-0.5c0.6-0.6,0.6-1.6,0-2.2c-2.2-2.2-4.5-4.3-6.8-6.3c2.3-3.6,4.8-7.3,7.3-11.1c2,1.7,3.9,3.4,5.9,5.2
	c0.3,0.3,0.7,0.4,1.1,0.4c0.4,0,0.8-0.2,1.2-0.5c0.6-0.6,0.5-1.6-0.1-2.2c-2-1.9-4.1-3.7-6.2-5.5c2.4-3.6,5-7.2,7.6-10.8
	c2.7,2.2,5.4,4.6,8,7c0.3,0.3,0.7,0.4,1.1,0.4c0.4,0,0.8-0.2,1.1-0.5c0.6-0.6,0.5-1.6-0.1-2.2c-2.7-2.5-5.5-5-8.3-7.3
	c2.6-3.5,5.2-7,7.9-10.5c3.3,2.6,6.6,5.5,9.8,8.5c0.3,0.3,0.7,0.4,1.1,0.4c0.4,0,0.8-0.2,1.2-0.5c0.6-0.6,0.5-1.6-0.1-2.2
	c-3.3-3-6.6-5.9-10-8.6c2.8-3.5,5.6-7,8.5-10.4c3.8,3,7.6,6.2,11.3,9.7c0.3,0.3,0.7,0.4,1.1,0.4c0.4,0,0.8-0.2,1.1-0.5
	c0.6-0.6,0.5-1.6-0.1-2.2c-3.8-3.5-7.6-6.7-11.4-9.7c2.8-3.3,5.7-6.5,8.7-9.6c4.3,3.3,8.6,6.9,12.9,10.9c0.3,0.3,0.7,0.4,1.1,0.4
	c0.4,0,0.8-0.2,1.1-0.5c0.6-0.6,0.5-1.6-0.1-2.2c-4.2-3.9-8.5-7.5-12.8-10.9c1.4-1.5,2.8-2.9,4.2-4.3c1.8-1.8,3.7-3.5,5.5-4.8
	c4.1,3.4,8.3,6.9,12.3,10.5c0.3,0.3,0.7,0.4,1,0.4c0.4,0,0.9-0.2,1.2-0.5c0.6-0.6,0.5-1.6-0.1-2.2c-3.8-3.4-7.8-6.8-11.8-10
	c3.6-2.3,7.2-3.7,10.6-4.1c0.7-0.1,1.5-0.1,2.2-0.1c5.6,0,11,2.6,16.1,7.8c8.9,8.9,10.1,18.5,3.6,28.8c-3.2-3.9-6.6-7.8-10.1-11.6
	c-0.6-0.6-1.6-0.7-2.2-0.1c-0.6,0.6-0.7,1.6-0.1,2.2c3.6,3.9,7.1,8.1,10.5,12.2c-1.4,1.9-3.1,3.8-5,5.7
	C131.7,106.9,130.3,108.2,128.9,109.6z"/>
<path class="st12" d="M111.2,79.3c-0.4,0-0.7-0.1-1-0.4c-2.7-2.4-3-2.7-5.8-4.9c-0.7-0.5-0.8-1.5-0.3-2.2c0.5-0.7,1.5-0.8,2.2-0.3
	c2.9,2.3,3.2,2.6,6,5c0.6,0.6,0.7,1.6,0.1,2.2C112.1,79.1,111.7,79.3,111.2,79.3z"/>
<path class="st12" d="M99.3,90.7c-0.4,0-0.7-0.1-1-0.4l-1.2-1.1C96.9,89,96.9,89,96.8,89c-0.2-0.1-0.5-0.3-1.6-1.3
	c-0.7-0.5-0.8-1.5-0.3-2.2c0.5-0.7,1.5-0.8,2.2-0.3c1.1,0.9,1.4,1.1,1.5,1.2c0.2,0.1,0.2,0.1,0.6,0.5l1.2,1c0.7,0.6,0.7,1.6,0.1,2.2
	C100.2,90.5,99.8,90.7,99.3,90.7z"/>
<ellipse transform="matrix(0.6437 -0.7653 0.7653 0.6437 -45.7002 102.4801)" class="st12" cx="87.2" cy="100.3" rx="1.6" ry="1.6"/>
<g>
	<path class="st4" d="M186.2,37c-0.2,0.1-20.6,9.7-47.7,35.7l-7.8-7.7c0.3-0.3,32.7-35.5,45.4-55.8l9.3,5.8
		c-2.6,4.2-6.8,10.1-11,15.6c3.9-2.3,7-3.5,7.4-3.7L186.2,37z"/>
</g>
<path class="st27" d="M193.6,31.9l-3.2-7.1c-0.2-0.5-0.5-1-0.8-1.4c0.7-1.1,1.4-2.2,2.1-3.2c1.3-2.1,1.7-4.7,1.2-7.1
	s-2.1-4.5-4.2-5.8L182,3.1c-1.5-1-3.3-1.4-5-1.4c-3.1,0-6.2,1.6-8,4.4c-9.2,14.8-28.7,37.1-38.1,47.4c1.9,0.8,3.8,1.8,5.6,3.1
	c-3.7,4.2-6.2,6.8-6.2,6.9c-1.2,1.2-1.1,3.2,0.1,4.4l5.6,5.5c0.6,0.6,1.4,0.9,2.2,0.9c0.8,0,1.6-0.3,2.2-0.9
	c2.4-2.3,4.7-4.4,6.9-6.4c1.3,1.8,2.4,3.6,3.3,5.5c18-16.4,32.7-25.5,38.4-28.1C193.7,42.1,195.7,36.6,193.6,31.9z M167.9,36.7
	c0,0,6.4-4.5,13.9-8.1l3.2,7.1c-27.8,17-46.7,35.3-46.7,35.3l-5.6-5.5c0,0,22.5-23.2,44.3-54.6l6.6,4.1
	C176.3,26.6,167.9,36.7,167.9,36.7z"/>
</svg>