<?xml version="1.0" encoding="UTF-8" standalone="no"?><!-- Generator: Gravit.io --><svg xmlns="http://www.w3.org/2000/svg" xmlns:xlink="http://www.w3.org/1999/xlink" style="isolation:isolate" viewBox="0 0 766.25 91.826" width="766.25pt" height="91.826pt"><defs><clipPath id="_clipPath_rgSa1PrtobhcUpJJIiU4Ul3hQpq20vUe"><rect width="766.25" height="91.826"/></clipPath></defs><g clip-path="url(#_clipPath_rgSa1PrtobhcUpJJIiU4Ul3hQpq20vUe)"><g style="isolation:isolate"/><g style="isolation:isolate"/><g><defs><filter id="1FQdlVcZdqn9UN5YjGraYb5LQT3V72lH" x="-200%" y="-200%" width="400%" height="400%" filterUnits="objectBoundingBox" color-interpolation-filters="sRGB"><feGaussianBlur xmlns="http://www.w3.org/2000/svg" in="SourceGraphic" stdDeviation="2.146804531419514"/><feOffset xmlns="http://www.w3.org/2000/svg" dx="0" dy="3" result="pf_100_offsetBlur"/><feFlood xmlns="http://www.w3.org/2000/svg" flood-color="#296841" flood-opacity="1"/><feComposite xmlns="http://www.w3.org/2000/svg" in2="pf_100_offsetBlur" operator="in" result="pf_100_dropShadow"/><feBlend xmlns="http://www.w3.org/2000/svg" in="SourceGraphic" in2="pf_100_dropShadow" mode="normal" result="_out_L4KOyk4EMsxzL6SD2ev84k4JptSOhM29"/><feGaussianBlur xmlns="http://www.w3.org/2000/svg" in="_out_L4KOyk4EMsxzL6SD2ev84k4JptSOhM29" stdDeviation="2.146804531419514"/><feOffset xmlns="http://www.w3.org/2000/svg" dx="0" dy="0" result="pf_101_offsetBlur"/><feFlood xmlns="http://www.w3.org/2000/svg" flood-color="#000000" flood-opacity="0.65"/><feComposite xmlns="http://www.w3.org/2000/svg" in2="pf_101_offsetBlur" operator="in" result="pf_101_dropShadow"/><feBlend xmlns="http://www.w3.org/2000/svg" in="_out_L4KOyk4EMsxzL6SD2ev84k4JptSOhM29" in2="pf_101_dropShadow" mode="normal" result="_out_T0ZPzBWoOhs38fCnH7EMUsQJXzqZliHg"/><feOffset xmlns="http://www.w3.org/2000/svg" in="_out_T0ZPzBWoOhs38fCnH7EMUsQJXzqZliHg" dx="1" dy="3"/><feGaussianBlur xmlns="http://www.w3.org/2000/svg" stdDeviation="2.146804531419514" result="pf_102_offsetBlur"/><feComposite xmlns="http://www.w3.org/2000/svg" in="_out_T0ZPzBWoOhs38fCnH7EMUsQJXzqZliHg" in2="pf_102_offsetBlur" result="pf_102_inverse" operator="out"/><feFlood xmlns="http://www.w3.org/2000/svg" flood-color="#000000" flood-opacity="0.5" result="pf_102_color"/><feComposite xmlns="http://www.w3.org/2000/svg" in="pf_102_color" in2="pf_102_inverse" operator="in" result="pf_102_shadow"/><feComposite xmlns="http://www.w3.org/2000/svg" in="pf_102_shadow" in2="_out_T0ZPzBWoOhs38fCnH7EMUsQJXzqZliHg" operator="over" result="_out_3EXIuowi2taKal1GTwBj0ZQvpL5JxEtR"/><feMerge><feMergeNode in="_out_3EXIuowi2taKal1GTwBj0ZQvpL5JxEtR"/></feMerge></filter></defs><g filter="url(#1FQdlVcZdqn9UN5YjGraYb5LQT3V72lH)"><path d=" M 53.252 81.576 L 53.252 81.576 Q 39.993 81.576 29.507 76.708 L 29.507 76.708 L 29.507 76.708 Q 19.021 71.839 13.136 63.471 L 13.136 63.471 L 13.136 63.471 Q 7.25 55.104 7.25 45.062 L 7.25 45.062 L 7.25 45.062 Q 7.25 35.426 12.391 27.566 L 12.391 27.566 L 12.391 27.566 Q 17.533 18.705 27.072 14.141 L 27.072 14.141 L 27.072 14.141 Q 36.61 9.576 49.193 9.576 L 49.193 9.576 L 49.193 9.576 Q 70.099 9.326 78.934 17.676 L 78.934 8.779 L 84.439 11.779 Q 85.048 27.414 85.048 32.384 L 85.048 32.384 L 82.342 32.384 L 82.342 32.384 Q 79.771 23.458 72.6 19.046 L 72.6 19.046 L 72.6 19.046 Q 65.429 14.634 53.252 14.634 L 53.252 14.634 L 53.252 14.634 Q 42.293 14.634 34.987 18.944 L 34.987 18.944 L 34.987 18.944 Q 27.68 23.255 24.23 30.152 L 24.23 30.152 L 24.23 30.152 Q 20.78 37.049 20.78 45.062 L 20.78 45.062 L 20.78 45.062 Q 20.78 62.204 29.71 69.861 L 29.71 69.861 L 29.71 69.861 Q 38.64 77.519 53.252 77.519 L 53.252 77.519 L 53.252 77.519 Q 60.153 77.519 65.023 76.606 L 65.023 76.606 L 65.023 76.606 Q 69.894 75.694 74.224 73.969 L 74.224 73.969 L 74.224 56.321 L 74.224 56.321 Q 74.224 52.872 75.712 50.336 L 75.712 50.336 L 75.712 50.336 Q 77.2 47.801 82.139 46.127 L 82.139 46.127 L 82.139 46.127 Q 87.077 44.454 96.548 44.454 L 96.548 44.454 L 96.548 46.482 L 96.548 46.482 Q 90.46 46.482 88.43 48.815 L 88.43 48.815 L 88.43 48.815 Q 86.401 51.148 86.401 56.118 L 86.401 56.118 L 86.401 75.186 L 86.401 75.186 Q 79.095 78.534 71.112 80.055 L 71.112 80.055 L 71.112 80.055 Q 63.129 81.576 53.252 81.576 L 53.252 81.576 Z  M 118.608 80.562 L 118.608 80.562 Q 114.279 80.562 109.814 79.193 L 109.814 79.193 L 109.814 79.193 Q 105.349 77.824 102.169 74.679 L 102.169 74.679 L 102.169 74.679 Q 98.99 71.535 98.99 66.362 L 98.99 66.362 L 98.99 66.362 Q 98.99 58.654 108.529 55.408 L 108.529 55.408 L 108.529 55.408 Q 118.067 52.162 133.491 52.162 L 133.491 52.162 L 137.55 52.162 L 137.55 52.162 Q 137.55 42.222 133.897 38.571 L 133.897 38.571 L 133.897 38.571 Q 130.244 34.919 123.344 34.919 L 123.344 34.919 L 123.344 34.919 Q 117.255 34.919 113.602 36.846 L 113.602 36.846 L 113.602 36.846 Q 109.949 38.774 108.461 43.541 L 108.461 43.541 L 102.372 43.541 L 102.372 43.541 Q 102.372 40.092 102.914 38.114 L 102.914 38.114 L 102.914 38.114 Q 103.455 36.136 105.755 34.412 L 105.755 34.412 L 105.755 34.412 Q 108.19 32.586 113.805 31.724 L 113.805 31.724 L 113.805 31.724 Q 119.42 30.862 126.05 30.862 L 126.05 30.862 L 126.05 30.862 Q 137.009 30.862 143.368 35.274 L 143.368 35.274 L 143.368 35.274 Q 149.728 39.686 149.728 52.162 L 149.728 52.162 L 149.728 79.548 L 142.962 79.548 L 138.227 74.984 L 137.55 74.984 L 137.55 74.984 Q 135.115 77.316 130.38 78.939 L 130.38 78.939 L 130.38 78.939 Q 125.644 80.562 118.608 80.562 L 118.608 80.562 Z  M 124.697 75.998 L 124.697 75.998 Q 129.162 75.998 132.138 74.375 L 132.138 74.375 L 132.138 74.375 Q 135.115 72.752 137.55 69.912 L 137.55 69.912 L 137.55 56.219 L 133.491 56.219 L 133.491 56.219 Q 123.479 56.219 117.661 59.009 L 117.661 59.009 L 117.661 59.009 Q 111.843 61.798 111.843 66.362 L 111.843 66.362 L 111.843 66.362 Q 111.843 71.028 115.564 73.513 L 115.564 73.513 L 115.564 73.513 Q 119.285 75.998 124.697 75.998 L 124.697 75.998 Z  M 163.617 79.548 L 163.617 44.048 L 163.617 44.048 Q 163.617 38.875 161.723 36.39 L 161.723 36.39 L 161.723 36.39 Q 159.828 33.905 154.146 33.905 L 154.146 33.905 L 152.793 33.905 L 152.793 31.876 L 163.617 31.876 L 163.617 31.876 Q 168.758 31.876 171.396 32.941 L 171.396 32.941 L 171.396 32.941 Q 174.035 34.006 175.117 36.441 L 175.117 36.441 L 175.794 36.441 L 175.794 36.441 Q 178.229 34.108 182.356 32.485 L 182.356 32.485 L 182.356 32.485 Q 186.482 30.862 192.03 30.862 L 192.03 30.862 L 192.03 30.862 Q 197.442 30.862 200.148 32.384 L 200.148 32.384 L 200.148 32.384 Q 202.448 33.702 204.883 36.948 L 204.883 36.948 L 199.471 39.991 L 199.471 39.991 Q 197.983 38.469 195.142 37.709 L 195.142 37.709 L 195.142 37.709 Q 192.3 36.948 188.647 36.948 L 188.647 36.948 L 188.647 36.948 Q 184.588 36.948 181.206 38.317 L 181.206 38.317 L 181.206 38.317 Q 177.823 39.686 175.794 42.019 L 175.794 42.019 L 175.794 79.548 L 163.617 79.548 Z  M 230.002 80.562 L 230.002 80.562 Q 218.231 80.562 211.94 73.564 L 211.94 73.564 L 211.94 73.564 Q 205.648 66.565 205.648 55.712 L 205.648 55.712 L 205.648 55.712 Q 205.648 44.859 212.21 37.861 L 212.21 37.861 L 212.21 37.861 Q 218.773 30.862 231.355 30.862 L 231.355 30.862 L 231.355 30.862 Q 236.497 30.862 240.421 31.674 L 240.421 31.674 L 240.421 31.674 Q 244.344 32.485 248.268 33.905 L 248.268 33.905 L 248.268 24.776 L 248.268 24.776 Q 248.268 19.604 246.374 17.119 L 246.374 17.119 L 246.374 17.119 Q 244.48 14.634 238.797 14.634 L 238.797 14.634 L 236.091 14.634 L 236.091 12.605 L 248.268 12.605 L 248.268 12.605 Q 253.274 12.605 255.777 13.569 L 255.777 13.569 L 255.777 13.569 Q 258.28 14.532 259.363 17.068 L 259.363 17.068 L 259.363 17.068 Q 260.445 19.604 260.445 24.776 L 260.445 24.776 L 260.445 79.548 L 253.68 79.548 L 248.944 74.984 L 248.268 74.984 L 248.268 74.984 Q 245.291 77.519 241.3 79.041 L 241.3 79.041 L 241.3 79.041 Q 237.309 80.562 230.002 80.562 L 230.002 80.562 Z  M 234.061 76.505 L 234.061 76.505 Q 239.609 76.505 242.45 74.984 L 242.45 74.984 L 242.45 74.984 Q 245.291 73.462 248.268 70.419 L 248.268 70.419 L 248.268 37.962 L 248.268 37.962 Q 244.209 36.542 241.232 35.731 L 241.232 35.731 L 241.232 35.731 Q 238.256 34.919 235.414 34.919 L 235.414 34.919 L 235.414 34.919 Q 226.755 34.919 222.629 40.599 L 222.629 40.599 L 222.629 40.599 Q 218.502 46.279 218.502 55.712 L 218.502 55.712 L 218.502 55.712 Q 218.502 65.044 222.426 70.774 L 222.426 70.774 L 222.426 70.774 Q 226.349 76.505 234.061 76.505 L 234.061 76.505 Z  M 298.688 80.562 L 298.688 80.562 Q 289.488 80.562 283.129 77.266 L 283.129 77.266 L 283.129 77.266 Q 276.77 73.969 273.522 68.34 L 273.522 68.34 L 273.522 68.34 Q 270.275 62.711 270.275 55.712 L 270.275 55.712 L 270.275 55.712 Q 270.275 48.815 273.522 43.135 L 273.522 43.135 L 273.522 43.135 Q 276.77 37.455 282.926 34.159 L 282.926 34.159 L 282.926 34.159 Q 289.082 30.862 297.335 30.862 L 297.335 30.862 L 297.335 30.862 Q 311.001 30.862 317.698 36.593 L 317.698 36.593 L 317.698 36.593 Q 324.395 42.324 324.395 53.176 L 324.395 53.176 L 324.125 57.234 L 283.129 57.234 L 283.129 57.234 Q 283.129 65.754 288 71.129 L 288 71.129 L 288 71.129 Q 292.87 76.505 301.394 76.505 L 301.394 76.505 L 301.394 76.505 Q 307.753 76.505 312.151 74.476 L 312.151 74.476 L 312.151 74.476 Q 316.548 72.448 320.336 68.391 L 320.336 68.391 L 323.042 69.912 L 323.042 69.912 Q 318.577 75.491 312.624 78.026 L 312.624 78.026 L 312.624 78.026 Q 306.671 80.562 298.688 80.562 L 298.688 80.562 Z  M 283.129 53.176 L 311.542 53.176 L 311.542 53.176 Q 311.542 44.251 308.024 39.585 L 308.024 39.585 L 308.024 39.585 Q 304.506 34.919 297.335 34.919 L 297.335 34.919 L 297.335 34.919 Q 293.276 34.919 290.029 37.303 L 290.029 37.303 L 290.029 37.303 Q 286.782 39.686 284.955 43.845 L 284.955 43.845 L 284.955 43.845 Q 283.129 48.004 283.129 53.176 L 283.129 53.176 Z  M 336.984 79.548 L 336.984 44.048 L 336.984 44.048 Q 336.984 38.875 335.09 36.39 L 335.09 36.39 L 335.09 36.39 Q 333.196 33.905 327.513 33.905 L 327.513 33.905 L 324.807 33.905 L 324.807 31.876 L 336.984 31.876 L 336.984 31.876 Q 341.991 31.876 344.629 32.891 L 344.629 32.891 L 344.629 32.891 Q 347.267 33.905 348.485 35.934 L 348.485 35.934 L 349.162 35.934 L 349.162 35.934 Q 352.003 33.804 356.535 32.333 L 356.535 32.333 L 356.535 32.333 Q 361.068 30.862 366.751 30.862 L 366.751 30.862 L 366.751 30.862 Q 376.898 30.862 383.325 34.919 L 383.325 34.919 L 383.325 34.919 Q 389.752 38.976 389.752 49.119 L 389.752 49.119 L 389.752 74.375 L 396.226 77.215 L 396.226 79.751 L 377.575 79.548 L 377.575 49.119 L 377.575 49.119 Q 377.575 42.019 373.313 38.723 L 373.313 38.723 L 373.313 38.723 Q 369.051 35.426 362.692 35.426 L 362.692 35.426 L 362.692 35.426 Q 355.521 35.426 349.162 40.802 L 349.162 40.802 L 349.162 79.548 L 336.984 79.548 Z  M 431.972 81.272 L 431.972 81.272 Q 424.53 81.272 417.359 79.751 L 417.359 79.751 L 417.359 79.751 Q 410.188 78.229 405.656 75.389 L 405.656 75.389 L 405.656 75.389 Q 401.123 72.549 401.123 68.898 L 401.123 68.898 L 401.123 53.045 L 403.558 53.045 L 403.558 53.045 Q 405.859 68.188 412.488 72.701 L 412.488 72.701 L 412.488 72.701 Q 419.118 77.215 430.754 77.215 L 430.754 77.215 L 430.754 77.215 Q 438.06 77.215 443.269 74.476 L 443.269 74.476 L 443.269 74.476 Q 448.478 71.738 448.478 66.869 L 448.478 66.869 L 448.478 66.869 Q 448.478 62.609 444.96 59.465 L 444.96 59.465 L 444.96 59.465 Q 441.443 56.321 433.595 52.872 L 433.595 52.872 L 416.953 45.468 L 416.953 45.468 Q 408.294 41.614 404.708 37.658 L 404.708 37.658 L 404.708 37.658 Q 401.123 33.702 401.123 28.022 L 401.123 28.022 L 401.123 28.022 Q 401.123 20.212 408.362 15.496 L 408.362 15.496 L 408.362 15.496 Q 415.6 10.779 427.371 10.779 L 427.371 10.779 L 427.371 10.779 Q 434.272 10.779 441.037 12.25 L 441.037 12.25 L 441.037 12.25 Q 448.522 14.826 451.551 18.044 C 451.791 18.151 452.309 9.576 452.331 9.551 C 452.309 9.576 456.598 7.318 456.596 7.25 L 456.596 33.804 L 454.161 33.804 L 454.161 33.804 Q 451.861 23.661 445.434 19.249 L 445.434 19.249 L 445.434 19.249 Q 439.007 14.836 427.371 14.836 L 427.371 14.836 L 427.371 14.836 Q 421.148 14.836 416.412 17.676 L 416.412 17.676 L 416.412 17.676 Q 411.676 20.516 411.676 25.081 L 411.676 25.081 L 411.676 25.081 Q 411.676 29.239 415.127 31.978 L 415.127 31.978 L 415.127 31.978 Q 418.577 34.716 426.695 38.368 L 426.695 38.368 L 443.337 45.772 L 443.337 45.772 Q 452.537 49.931 456.326 53.481 L 456.326 53.481 L 456.326 53.481 Q 461.124 58.031 461.124 63.508 L 461.124 63.508 L 461.124 63.508 Q 461.648 73.826 453.547 78.15 L 453.547 78.15 L 453.547 78.15 Q 445.494 82.076 431.972 81.272 L 431.972 81.272 Z  M 495.434 80.562 L 495.434 80.562 Q 486.233 80.562 479.874 77.266 L 479.874 77.266 L 479.874 77.266 Q 473.515 73.969 470.268 68.34 L 470.268 68.34 L 470.268 68.34 Q 467.02 62.711 467.02 55.712 L 467.02 55.712 L 467.02 55.712 Q 467.02 48.815 470.268 43.135 L 470.268 43.135 L 470.268 43.135 Q 473.515 37.455 479.671 34.159 L 479.671 34.159 L 479.671 34.159 Q 485.827 30.862 494.081 30.862 L 494.081 30.862 L 494.081 30.862 Q 507.746 30.862 514.443 36.593 L 514.443 36.593 L 514.443 36.593 Q 521.141 42.324 521.141 53.176 L 521.141 53.176 L 520.87 57.234 L 479.874 57.234 L 479.874 57.234 Q 479.874 65.754 484.745 71.129 L 484.745 71.129 L 484.745 71.129 Q 489.616 76.505 498.14 76.505 L 498.14 76.505 L 498.14 76.505 Q 504.499 76.505 508.896 74.476 L 508.896 74.476 L 508.896 74.476 Q 513.293 72.448 517.082 68.391 L 517.082 68.391 L 519.788 69.912 L 519.788 69.912 Q 515.323 75.491 509.37 78.026 L 509.37 78.026 L 509.37 78.026 Q 503.416 80.562 495.434 80.562 L 495.434 80.562 Z  M 479.874 53.176 L 508.287 53.176 L 508.287 53.176 Q 508.287 44.251 504.769 39.585 L 504.769 39.585 L 504.769 39.585 Q 501.251 34.919 494.081 34.919 L 494.081 34.919 L 494.081 34.919 Q 490.022 34.919 486.774 37.303 L 486.774 37.303 L 486.774 37.303 Q 483.527 39.686 481.701 43.845 L 481.701 43.845 L 481.701 43.845 Q 479.874 48.004 479.874 53.176 L 479.874 53.176 Z  M 555.46 80.562 L 555.46 80.562 Q 546.26 80.562 539.901 77.266 L 539.901 77.266 L 539.901 77.266 Q 533.542 73.969 530.294 68.34 L 530.294 68.34 L 530.294 68.34 Q 527.047 62.711 527.047 55.712 L 527.047 55.712 L 527.047 55.712 Q 527.047 48.815 530.294 43.135 L 530.294 43.135 L 530.294 43.135 Q 533.542 37.455 539.698 34.159 L 539.698 34.159 L 539.698 34.159 Q 545.854 30.862 554.107 30.862 L 554.107 30.862 L 554.107 30.862 Q 567.773 30.862 574.47 36.593 L 574.47 36.593 L 574.47 36.593 Q 581.167 42.324 581.167 53.176 L 581.167 53.176 L 580.897 57.234 L 539.901 57.234 L 539.901 57.234 Q 539.901 65.754 544.771 71.129 L 544.771 71.129 L 544.771 71.129 Q 549.642 76.505 558.166 76.505 L 558.166 76.505 L 558.166 76.505 Q 564.525 76.505 568.923 74.476 L 568.923 74.476 L 568.923 74.476 Q 573.32 72.448 577.108 68.391 L 577.108 68.391 L 579.814 69.912 L 579.814 69.912 Q 575.349 75.491 569.396 78.026 L 569.396 78.026 L 569.396 78.026 Q 563.443 80.562 555.46 80.562 L 555.46 80.562 Z  M 539.901 53.176 L 568.314 53.176 L 568.314 53.176 Q 568.314 44.251 564.796 39.585 L 564.796 39.585 L 564.796 39.585 Q 561.278 34.919 554.107 34.919 L 554.107 34.919 L 554.107 34.919 Q 550.048 34.919 546.801 37.303 L 546.801 37.303 L 546.801 37.303 Q 543.554 39.686 541.727 43.845 L 541.727 43.845 L 541.727 43.845 Q 539.901 48.004 539.901 53.176 L 539.901 53.176 Z  M 612.698 80.562 L 612.698 80.562 Q 600.927 80.562 594.636 73.564 L 594.636 73.564 L 594.636 73.564 Q 588.344 66.565 588.344 55.712 L 588.344 55.712 L 588.344 55.712 Q 588.344 44.859 594.906 37.861 L 594.906 37.861 L 594.906 37.861 Q 601.469 30.862 614.051 30.862 L 614.051 30.862 L 614.051 30.862 Q 619.193 30.862 623.117 31.674 L 623.117 31.674 L 623.117 31.674 Q 627.04 32.485 630.964 33.905 L 630.964 33.905 L 630.964 24.776 L 630.964 24.776 Q 630.964 19.604 629.07 17.119 L 629.07 17.119 L 629.07 17.119 Q 627.176 14.634 621.493 14.634 L 621.493 14.634 L 618.787 14.634 L 618.787 12.605 L 630.964 12.605 L 630.964 12.605 Q 635.97 12.605 638.473 13.569 L 638.473 13.569 L 638.473 13.569 Q 640.976 14.532 642.059 17.068 L 642.059 17.068 L 642.059 17.068 Q 643.141 19.604 643.141 24.776 L 643.141 24.776 L 643.141 79.548 L 636.376 79.548 L 631.641 74.984 L 630.964 74.984 L 630.964 74.984 Q 627.987 77.519 623.996 79.041 L 623.996 79.041 L 623.996 79.041 Q 620.005 80.562 612.698 80.562 L 612.698 80.562 Z  M 616.757 76.505 L 616.757 76.505 Q 622.305 76.505 625.146 74.984 L 625.146 74.984 L 625.146 74.984 Q 627.987 73.462 630.964 70.419 L 630.964 70.419 L 630.964 37.962 L 630.964 37.962 Q 626.905 36.542 623.928 35.731 L 623.928 35.731 L 623.928 35.731 Q 620.952 34.919 618.11 34.919 L 618.11 34.919 L 618.11 34.919 Q 609.451 34.919 605.325 40.599 L 605.325 40.599 L 605.325 40.599 Q 601.198 46.279 601.198 55.712 L 601.198 55.712 L 601.198 55.712 Q 601.198 65.044 605.122 70.774 L 605.122 70.774 L 605.122 70.774 Q 609.045 76.505 616.757 76.505 L 616.757 76.505 Z  M 680.384 80.562 L 680.384 80.562 Q 671.184 80.562 664.825 77.266 L 664.825 77.266 L 664.825 77.266 Q 658.466 73.969 655.218 68.34 L 655.218 68.34 L 655.218 68.34 Q 651.971 62.711 651.971 55.712 L 651.971 55.712 L 651.971 55.712 Q 651.971 48.815 655.218 43.135 L 655.218 43.135 L 655.218 43.135 Q 658.466 37.455 664.622 34.159 L 664.622 34.159 L 664.622 34.159 Q 670.778 30.862 679.031 30.862 L 679.031 30.862 L 679.031 30.862 Q 692.697 30.862 699.394 36.593 L 699.394 36.593 L 699.394 36.593 Q 706.091 42.324 706.091 53.176 L 706.091 53.176 L 705.821 57.234 L 664.825 57.234 L 664.825 57.234 Q 664.825 65.754 669.696 71.129 L 669.696 71.129 L 669.696 71.129 Q 674.566 76.505 683.09 76.505 L 683.09 76.505 L 683.09 76.505 Q 689.449 76.505 693.847 74.476 L 693.847 74.476 L 693.847 74.476 Q 698.244 72.448 702.032 68.391 L 702.032 68.391 L 704.738 69.912 L 704.738 69.912 Q 700.273 75.491 694.32 78.026 L 694.32 78.026 L 694.32 78.026 Q 688.367 80.562 680.384 80.562 L 680.384 80.562 Z  M 664.825 53.176 L 693.238 53.176 L 693.238 53.176 Q 693.238 44.251 689.72 39.585 L 689.72 39.585 L 689.72 39.585 Q 686.202 34.919 679.031 34.919 L 679.031 34.919 L 679.031 34.919 Q 674.972 34.919 671.725 37.303 L 671.725 37.303 L 671.725 37.303 Q 668.478 39.686 666.651 43.845 L 666.651 43.845 L 666.651 43.845 Q 664.825 48.004 664.825 53.176 L 664.825 53.176 Z  M 717.733 79.548 L 717.733 44.048 L 717.733 44.048 Q 717.733 38.875 715.839 36.39 L 715.839 36.39 L 715.839 36.39 Q 713.945 33.905 708.262 33.905 L 708.262 33.905 L 706.909 33.905 L 706.909 31.876 L 717.733 31.876 L 717.733 31.876 Q 722.875 31.876 725.513 32.941 L 725.513 32.941 L 725.513 32.941 Q 728.152 34.006 729.234 36.441 L 729.234 36.441 L 729.91 36.441 L 729.91 36.441 Q 732.346 34.108 736.472 32.485 L 736.472 32.485 L 736.472 32.485 Q 740.599 30.862 746.146 30.862 L 746.146 30.862 L 746.146 30.862 Q 751.558 30.862 754.264 32.384 L 754.264 32.384 L 754.264 32.384 Q 756.565 33.702 759 36.948 L 759 36.948 L 753.588 39.991 L 753.588 39.991 Q 752.1 38.469 749.258 37.709 L 749.258 37.709 L 749.258 37.709 Q 746.417 36.948 742.764 36.948 L 742.764 36.948 L 742.764 36.948 Q 738.705 36.948 735.322 38.317 L 735.322 38.317 L 735.322 38.317 Q 731.94 39.686 729.91 42.019 L 729.91 42.019 L 729.91 79.548 L 717.733 79.548 Z " fill="rgb(49,123,78)" vector-effect="non-scaling-stroke" stroke-width="0.5" stroke="rgb(255,255,255)" stroke-linejoin="miter" stroke-linecap="square" stroke-miterlimit="3" style="mix-blend-mode:hard-light;"/></g></g><g style="isolation:isolate"/></g></svg>