<?xml version="1.0" encoding="UTF-8" standalone="no"?><!-- Generator: Gravit.io --><svg xmlns="http://www.w3.org/2000/svg" xmlns:xlink="http://www.w3.org/1999/xlink" style="isolation:isolate" viewBox="0 0 728 108" width="728pt" height="108pt"><defs><clipPath id="_clipPath_xiaF2QZR4nXdEDPXfvhA86uHPzK7Tvqs"><rect width="728" height="108"/></clipPath></defs><g clip-path="url(#_clipPath_xiaF2QZR4nXdEDPXfvhA86uHPzK7Tvqs)"><g style="isolation:isolate"/><g style="isolation:isolate"/><g><defs><filter id="9bFYOjWvy9yXLPJLOsODwwuP5akj4mvW" x="-200%" y="-200%" width="400%" height="400%" filterUnits="objectBoundingBox" color-interpolation-filters="sRGB"><feGaussianBlur xmlns="http://www.w3.org/2000/svg" in="SourceGraphic" stdDeviation="2.146804531419514"/><feOffset xmlns="http://www.w3.org/2000/svg" dx="0" dy="3" result="pf_100_offsetBlur"/><feFlood xmlns="http://www.w3.org/2000/svg" flood-color="#296841" flood-opacity="1"/><feComposite xmlns="http://www.w3.org/2000/svg" in2="pf_100_offsetBlur" operator="in" result="pf_100_dropShadow"/><feBlend xmlns="http://www.w3.org/2000/svg" in="SourceGraphic" in2="pf_100_dropShadow" mode="normal" result="_out_flZkg3MK6jKLWWAyDB4aN2x3FGOFxBKM"/><feGaussianBlur xmlns="http://www.w3.org/2000/svg" in="_out_flZkg3MK6jKLWWAyDB4aN2x3FGOFxBKM" stdDeviation="2.146804531419514"/><feOffset xmlns="http://www.w3.org/2000/svg" dx="0" dy="0" result="pf_101_offsetBlur"/><feFlood xmlns="http://www.w3.org/2000/svg" flood-color="#000000" flood-opacity="0.65"/><feComposite xmlns="http://www.w3.org/2000/svg" in2="pf_101_offsetBlur" operator="in" result="pf_101_dropShadow"/><feBlend xmlns="http://www.w3.org/2000/svg" in="_out_flZkg3MK6jKLWWAyDB4aN2x3FGOFxBKM" in2="pf_101_dropShadow" mode="normal" result="_out_8YbLcVP9otnGuJZ9IDF5ynVBBs9zaDzA"/><feOffset xmlns="http://www.w3.org/2000/svg" in="_out_8YbLcVP9otnGuJZ9IDF5ynVBBs9zaDzA" dx="1" dy="3"/><feGaussianBlur xmlns="http://www.w3.org/2000/svg" stdDeviation="2.146804531419514" result="pf_102_offsetBlur"/><feComposite xmlns="http://www.w3.org/2000/svg" in="_out_8YbLcVP9otnGuJZ9IDF5ynVBBs9zaDzA" in2="pf_102_offsetBlur" result="pf_102_inverse" operator="out"/><feFlood xmlns="http://www.w3.org/2000/svg" flood-color="#000000" flood-opacity="0.5" result="pf_102_color"/><feComposite xmlns="http://www.w3.org/2000/svg" in="pf_102_color" in2="pf_102_inverse" operator="in" result="pf_102_shadow"/><feComposite xmlns="http://www.w3.org/2000/svg" in="pf_102_shadow" in2="_out_8YbLcVP9otnGuJZ9IDF5ynVBBs9zaDzA" operator="over" result="_out_kjM0xvqWPrhXdvrRCujHDXgJ4DLEdHQO"/><feMerge><feMergeNode in="_out_kjM0xvqWPrhXdvrRCujHDXgJ4DLEdHQO"/></feMerge></filter></defs><g filter="url(#9bFYOjWvy9yXLPJLOsODwwuP5akj4mvW)"><path d=" M 63.877 90 L 63.877 90 Q 50.618 90 40.132 85.131 L 40.132 85.131 L 40.132 85.131 Q 29.646 80.263 23.761 71.895 L 23.761 71.895 L 23.761 71.895 Q 17.875 63.527 17.875 53.486 L 17.875 53.486 L 17.875 53.486 Q 17.875 43.85 23.016 35.989 L 23.016 35.989 L 23.016 35.989 Q 28.158 27.129 37.697 22.564 L 37.697 22.564 L 37.697 22.564 Q 47.235 18 59.818 18 L 59.818 18 L 59.818 18 Q 80.724 17.75 89.559 26.1 L 89.559 17.203 L 95.064 20.203 Q 95.673 35.837 95.673 40.807 L 95.673 40.807 L 92.967 40.807 L 92.967 40.807 Q 90.396 31.881 83.225 27.469 L 83.225 27.469 L 83.225 27.469 Q 76.054 23.057 63.877 23.057 L 63.877 23.057 L 63.877 23.057 Q 52.918 23.057 45.612 27.368 L 45.612 27.368 L 45.612 27.368 Q 38.305 31.679 34.855 38.576 L 34.855 38.576 L 34.855 38.576 Q 31.405 45.473 31.405 53.486 L 31.405 53.486 L 31.405 53.486 Q 31.405 70.627 40.335 78.285 L 40.335 78.285 L 40.335 78.285 Q 49.265 85.943 63.877 85.943 L 63.877 85.943 L 63.877 85.943 Q 70.778 85.943 75.648 85.03 L 75.648 85.03 L 75.648 85.03 Q 80.519 84.117 84.849 82.393 L 84.849 82.393 L 84.849 64.744 L 84.849 64.744 Q 84.849 61.296 86.337 58.76 L 86.337 58.76 L 86.337 58.76 Q 87.825 56.224 92.764 54.551 L 92.764 54.551 L 92.764 54.551 Q 97.702 52.877 107.173 52.877 L 107.173 52.877 L 107.173 54.906 L 107.173 54.906 Q 101.085 54.906 99.055 57.239 L 99.055 57.239 L 99.055 57.239 Q 97.026 59.571 97.026 64.541 L 97.026 64.541 L 97.026 83.61 L 97.026 83.61 Q 89.72 86.957 81.737 88.479 L 81.737 88.479 L 81.737 88.479 Q 73.754 90 63.877 90 L 63.877 90 Z  M 129.233 88.986 L 129.233 88.986 Q 124.904 88.986 120.439 87.616 L 120.439 87.616 L 120.439 87.616 Q 115.974 86.247 112.794 83.103 L 112.794 83.103 L 112.794 83.103 Q 109.615 79.959 109.615 74.786 L 109.615 74.786 L 109.615 74.786 Q 109.615 67.077 119.154 63.831 L 119.154 63.831 L 119.154 63.831 Q 128.692 60.586 144.116 60.586 L 144.116 60.586 L 148.175 60.586 L 148.175 60.586 Q 148.175 50.646 144.522 46.994 L 144.522 46.994 L 144.522 46.994 Q 140.869 43.343 133.969 43.343 L 133.969 43.343 L 133.969 43.343 Q 127.88 43.343 124.227 45.27 L 124.227 45.27 L 124.227 45.27 Q 120.574 47.197 119.086 51.964 L 119.086 51.964 L 112.997 51.964 L 112.997 51.964 Q 112.997 48.516 113.539 46.538 L 113.539 46.538 L 113.539 46.538 Q 114.08 44.56 116.38 42.836 L 116.38 42.836 L 116.38 42.836 Q 118.815 41.01 124.43 40.148 L 124.43 40.148 L 124.43 40.148 Q 130.045 39.286 136.675 39.286 L 136.675 39.286 L 136.675 39.286 Q 147.634 39.286 153.993 43.698 L 153.993 43.698 L 153.993 43.698 Q 160.353 48.11 160.353 60.586 L 160.353 60.586 L 160.353 87.971 L 153.587 87.971 L 148.852 83.407 L 148.175 83.407 L 148.175 83.407 Q 145.74 85.74 141.005 87.363 L 141.005 87.363 L 141.005 87.363 Q 136.269 88.986 129.233 88.986 L 129.233 88.986 Z  M 135.322 84.421 L 135.322 84.421 Q 139.787 84.421 142.763 82.799 L 142.763 82.799 L 142.763 82.799 Q 145.74 81.176 148.175 78.336 L 148.175 78.336 L 148.175 64.643 L 144.116 64.643 L 144.116 64.643 Q 134.104 64.643 128.286 67.432 L 128.286 67.432 L 128.286 67.432 Q 122.468 70.221 122.468 74.786 L 122.468 74.786 L 122.468 74.786 Q 122.468 79.451 126.189 81.936 L 126.189 81.936 L 126.189 81.936 Q 129.91 84.421 135.322 84.421 L 135.322 84.421 Z  M 174.242 87.971 L 174.242 52.471 L 174.242 52.471 Q 174.242 47.299 172.347 44.814 L 172.347 44.814 L 172.347 44.814 Q 170.453 42.329 164.771 42.329 L 164.771 42.329 L 163.418 42.329 L 163.418 40.3 L 174.242 40.3 L 174.242 40.3 Q 179.383 40.3 182.021 41.365 L 182.021 41.365 L 182.021 41.365 Q 184.66 42.43 185.742 44.864 L 185.742 44.864 L 186.419 44.864 L 186.419 44.864 Q 188.854 42.531 192.981 40.909 L 192.981 40.909 L 192.981 40.909 Q 197.107 39.286 202.655 39.286 L 202.655 39.286 L 202.655 39.286 Q 208.067 39.286 210.773 40.807 L 210.773 40.807 L 210.773 40.807 Q 213.073 42.126 215.508 45.371 L 215.508 45.371 L 210.096 48.414 L 210.096 48.414 Q 208.608 46.893 205.767 46.132 L 205.767 46.132 L 205.767 46.132 Q 202.925 45.371 199.272 45.371 L 199.272 45.371 L 199.272 45.371 Q 195.213 45.371 191.831 46.741 L 191.831 46.741 L 191.831 46.741 Q 188.448 48.11 186.419 50.443 L 186.419 50.443 L 186.419 87.971 L 174.242 87.971 Z  M 240.627 88.986 L 240.627 88.986 Q 228.856 88.986 222.565 81.987 L 222.565 81.987 L 222.565 81.987 Q 216.273 74.989 216.273 64.136 L 216.273 64.136 L 216.273 64.136 Q 216.273 53.283 222.835 46.284 L 222.835 46.284 L 222.835 46.284 Q 229.398 39.286 241.98 39.286 L 241.98 39.286 L 241.98 39.286 Q 247.122 39.286 251.046 40.097 L 251.046 40.097 L 251.046 40.097 Q 254.969 40.909 258.893 42.329 L 258.893 42.329 L 258.893 33.2 L 258.893 33.2 Q 258.893 28.027 256.999 25.542 L 256.999 25.542 L 256.999 25.542 Q 255.105 23.057 249.422 23.057 L 249.422 23.057 L 246.716 23.057 L 246.716 21.029 L 258.893 21.029 L 258.893 21.029 Q 263.899 21.029 266.402 21.992 L 266.402 21.992 L 266.402 21.992 Q 268.905 22.956 269.988 25.491 L 269.988 25.491 L 269.988 25.491 Q 271.07 28.027 271.07 33.2 L 271.07 33.2 L 271.07 87.971 L 264.305 87.971 L 259.57 83.407 L 258.893 83.407 L 258.893 83.407 Q 255.916 85.943 251.925 87.464 L 251.925 87.464 L 251.925 87.464 Q 247.934 88.986 240.627 88.986 L 240.627 88.986 Z  M 244.686 84.929 L 244.686 84.929 Q 250.234 84.929 253.075 83.407 L 253.075 83.407 L 253.075 83.407 Q 255.916 81.886 258.893 78.843 L 258.893 78.843 L 258.893 46.386 L 258.893 46.386 Q 254.834 44.966 251.857 44.154 L 251.857 44.154 L 251.857 44.154 Q 248.881 43.343 246.039 43.343 L 246.039 43.343 L 246.039 43.343 Q 237.38 43.343 233.254 49.023 L 233.254 49.023 L 233.254 49.023 Q 229.127 54.703 229.127 64.136 L 229.127 64.136 L 229.127 64.136 Q 229.127 73.467 233.051 79.198 L 233.051 79.198 L 233.051 79.198 Q 236.974 84.929 244.686 84.929 L 244.686 84.929 Z  M 309.313 88.986 L 309.313 88.986 Q 300.113 88.986 293.754 85.689 L 293.754 85.689 L 293.754 85.689 Q 287.395 82.393 284.147 76.764 L 284.147 76.764 L 284.147 76.764 Q 280.9 71.134 280.9 64.136 L 280.9 64.136 L 280.9 64.136 Q 280.9 57.239 284.147 51.559 L 284.147 51.559 L 284.147 51.559 Q 287.395 45.879 293.551 42.582 L 293.551 42.582 L 293.551 42.582 Q 299.707 39.286 307.96 39.286 L 307.96 39.286 L 307.96 39.286 Q 321.626 39.286 328.323 45.016 L 328.323 45.016 L 328.323 45.016 Q 335.02 50.747 335.02 61.6 L 335.02 61.6 L 334.75 65.657 L 293.754 65.657 L 293.754 65.657 Q 293.754 74.177 298.625 79.553 L 298.625 79.553 L 298.625 79.553 Q 303.495 84.929 312.019 84.929 L 312.019 84.929 L 312.019 84.929 Q 318.378 84.929 322.776 82.9 L 322.776 82.9 L 322.776 82.9 Q 327.173 80.871 330.961 76.814 L 330.961 76.814 L 333.667 78.336 L 333.667 78.336 Q 329.202 83.914 323.249 86.45 L 323.249 86.45 L 323.249 86.45 Q 317.296 88.986 309.313 88.986 L 309.313 88.986 Z  M 293.754 61.6 L 322.167 61.6 L 322.167 61.6 Q 322.167 52.674 318.649 48.009 L 318.649 48.009 L 318.649 48.009 Q 315.131 43.343 307.96 43.343 L 307.96 43.343 L 307.96 43.343 Q 303.901 43.343 300.654 45.726 L 300.654 45.726 L 300.654 45.726 Q 297.407 48.11 295.58 52.269 L 295.58 52.269 L 295.58 52.269 Q 293.754 56.427 293.754 61.6 L 293.754 61.6 Z  M 347.609 87.971 L 347.609 52.471 L 347.609 52.471 Q 347.609 47.299 345.715 44.814 L 345.715 44.814 L 345.715 44.814 Q 343.821 42.329 338.138 42.329 L 338.138 42.329 L 335.432 42.329 L 335.432 40.3 L 347.609 40.3 L 347.609 40.3 Q 352.616 40.3 355.254 41.314 L 355.254 41.314 L 355.254 41.314 Q 357.892 42.329 359.11 44.357 L 359.11 44.357 L 359.787 44.357 L 359.787 44.357 Q 362.628 42.227 367.16 40.756 L 367.16 40.756 L 367.16 40.756 Q 371.693 39.286 377.376 39.286 L 377.376 39.286 L 377.376 39.286 Q 387.523 39.286 393.95 43.343 L 393.95 43.343 L 393.95 43.343 Q 400.377 47.4 400.377 57.543 L 400.377 57.543 L 400.377 82.799 L 406.851 85.639 L 406.851 88.174 L 388.2 87.971 L 388.2 57.543 L 388.2 57.543 Q 388.2 50.443 383.938 47.146 L 383.938 47.146 L 383.938 47.146 Q 379.676 43.85 373.317 43.85 L 373.317 43.85 L 373.317 43.85 Q 366.146 43.85 359.787 49.226 L 359.787 49.226 L 359.787 87.971 L 347.609 87.971 Z  M 442.597 89.696 L 442.597 89.696 Q 435.155 89.696 427.984 88.174 L 427.984 88.174 L 427.984 88.174 Q 420.813 86.653 416.281 83.813 L 416.281 83.813 L 416.281 83.813 Q 411.748 80.973 411.748 77.321 L 411.748 77.321 L 411.748 61.469 L 414.183 61.469 L 414.183 61.469 Q 416.484 76.611 423.113 81.125 L 423.113 81.125 L 423.113 81.125 Q 429.743 85.639 441.379 85.639 L 441.379 85.639 L 441.379 85.639 Q 448.685 85.639 453.894 82.9 L 453.894 82.9 L 453.894 82.9 Q 459.103 80.161 459.103 75.293 L 459.103 75.293 L 459.103 75.293 Q 459.103 71.033 455.585 67.889 L 455.585 67.889 L 455.585 67.889 Q 452.068 64.744 444.22 61.296 L 444.22 61.296 L 427.578 53.891 L 427.578 53.891 Q 418.919 50.037 415.333 46.081 L 415.333 46.081 L 415.333 46.081 Q 411.748 42.126 411.748 36.446 L 411.748 36.446 L 411.748 36.446 Q 411.748 28.636 418.987 23.919 L 418.987 23.919 L 418.987 23.919 Q 426.225 19.203 437.996 19.203 L 437.996 19.203 L 437.996 19.203 Q 444.897 19.203 451.662 20.674 L 451.662 20.674 L 451.662 20.674 Q 459.147 23.25 462.176 26.468 C 462.416 26.574 462.934 18 462.956 17.974 C 462.934 18 467.223 15.741 467.221 15.674 L 467.221 42.227 L 464.786 42.227 L 464.786 42.227 Q 462.486 32.084 456.059 27.672 L 456.059 27.672 L 456.059 27.672 Q 449.632 23.26 437.996 23.26 L 437.996 23.26 L 437.996 23.26 Q 431.773 23.26 427.037 26.1 L 427.037 26.1 L 427.037 26.1 Q 422.301 28.94 422.301 33.504 L 422.301 33.504 L 422.301 33.504 Q 422.301 37.663 425.752 40.401 L 425.752 40.401 L 425.752 40.401 Q 429.202 43.14 437.32 46.791 L 437.32 46.791 L 453.962 54.196 L 453.962 54.196 Q 463.162 58.354 466.951 61.904 L 466.951 61.904 L 466.951 61.904 Q 471.749 66.454 471.749 71.931 L 471.749 71.931 L 471.749 71.931 Q 472.273 82.25 464.172 86.574 L 464.172 86.574 L 464.172 86.574 Q 456.119 90.5 442.597 89.696 L 442.597 89.696 Z  M 506.059 88.986 L 506.059 88.986 Q 496.858 88.986 490.499 85.689 L 490.499 85.689 L 490.499 85.689 Q 484.14 82.393 480.893 76.764 L 480.893 76.764 L 480.893 76.764 Q 477.645 71.134 477.645 64.136 L 477.645 64.136 L 477.645 64.136 Q 477.645 57.239 480.893 51.559 L 480.893 51.559 L 480.893 51.559 Q 484.14 45.879 490.296 42.582 L 490.296 42.582 L 490.296 42.582 Q 496.452 39.286 504.706 39.286 L 504.706 39.286 L 504.706 39.286 Q 518.371 39.286 525.068 45.016 L 525.068 45.016 L 525.068 45.016 Q 531.766 50.747 531.766 61.6 L 531.766 61.6 L 531.495 65.657 L 490.499 65.657 L 490.499 65.657 Q 490.499 74.177 495.37 79.553 L 495.37 79.553 L 495.37 79.553 Q 500.241 84.929 508.765 84.929 L 508.765 84.929 L 508.765 84.929 Q 515.124 84.929 519.521 82.9 L 519.521 82.9 L 519.521 82.9 Q 523.918 80.871 527.707 76.814 L 527.707 76.814 L 530.413 78.336 L 530.413 78.336 Q 525.948 83.914 519.995 86.45 L 519.995 86.45 L 519.995 86.45 Q 514.041 88.986 506.059 88.986 L 506.059 88.986 Z  M 490.499 61.6 L 518.912 61.6 L 518.912 61.6 Q 518.912 52.674 515.394 48.009 L 515.394 48.009 L 515.394 48.009 Q 511.876 43.343 504.706 43.343 L 504.706 43.343 L 504.706 43.343 Q 500.647 43.343 497.399 45.726 L 497.399 45.726 L 497.399 45.726 Q 494.152 48.11 492.326 52.269 L 492.326 52.269 L 492.326 52.269 Q 490.499 56.427 490.499 61.6 L 490.499 61.6 Z  M 566.085 88.986 L 566.085 88.986 Q 556.885 88.986 550.526 85.689 L 550.526 85.689 L 550.526 85.689 Q 544.167 82.393 540.919 76.764 L 540.919 76.764 L 540.919 76.764 Q 537.672 71.134 537.672 64.136 L 537.672 64.136 L 537.672 64.136 Q 537.672 57.239 540.919 51.559 L 540.919 51.559 L 540.919 51.559 Q 544.167 45.879 550.323 42.582 L 550.323 42.582 L 550.323 42.582 Q 556.479 39.286 564.732 39.286 L 564.732 39.286 L 564.732 39.286 Q 578.398 39.286 585.095 45.016 L 585.095 45.016 L 585.095 45.016 Q 591.792 50.747 591.792 61.6 L 591.792 61.6 L 591.522 65.657 L 550.526 65.657 L 550.526 65.657 Q 550.526 74.177 555.396 79.553 L 555.396 79.553 L 555.396 79.553 Q 560.267 84.929 568.791 84.929 L 568.791 84.929 L 568.791 84.929 Q 575.15 84.929 579.548 82.9 L 579.548 82.9 L 579.548 82.9 Q 583.945 80.871 587.733 76.814 L 587.733 76.814 L 590.439 78.336 L 590.439 78.336 Q 585.974 83.914 580.021 86.45 L 580.021 86.45 L 580.021 86.45 Q 574.068 88.986 566.085 88.986 L 566.085 88.986 Z  M 550.526 61.6 L 578.939 61.6 L 578.939 61.6 Q 578.939 52.674 575.421 48.009 L 575.421 48.009 L 575.421 48.009 Q 571.903 43.343 564.732 43.343 L 564.732 43.343 L 564.732 43.343 Q 560.673 43.343 557.426 45.726 L 557.426 45.726 L 557.426 45.726 Q 554.179 48.11 552.352 52.269 L 552.352 52.269 L 552.352 52.269 Q 550.526 56.427 550.526 61.6 L 550.526 61.6 Z  M 623.323 88.986 L 623.323 88.986 Q 611.552 88.986 605.261 81.987 L 605.261 81.987 L 605.261 81.987 Q 598.969 74.989 598.969 64.136 L 598.969 64.136 L 598.969 64.136 Q 598.969 53.283 605.531 46.284 L 605.531 46.284 L 605.531 46.284 Q 612.094 39.286 624.676 39.286 L 624.676 39.286 L 624.676 39.286 Q 629.818 39.286 633.742 40.097 L 633.742 40.097 L 633.742 40.097 Q 637.665 40.909 641.589 42.329 L 641.589 42.329 L 641.589 33.2 L 641.589 33.2 Q 641.589 28.027 639.695 25.542 L 639.695 25.542 L 639.695 25.542 Q 637.801 23.057 632.118 23.057 L 632.118 23.057 L 629.412 23.057 L 629.412 21.029 L 641.589 21.029 L 641.589 21.029 Q 646.595 21.029 649.098 21.992 L 649.098 21.992 L 649.098 21.992 Q 651.601 22.956 652.684 25.491 L 652.684 25.491 L 652.684 25.491 Q 653.766 28.027 653.766 33.2 L 653.766 33.2 L 653.766 87.971 L 647.001 87.971 L 642.266 83.407 L 641.589 83.407 L 641.589 83.407 Q 638.612 85.943 634.621 87.464 L 634.621 87.464 L 634.621 87.464 Q 630.63 88.986 623.323 88.986 L 623.323 88.986 Z  M 627.382 84.929 L 627.382 84.929 Q 632.93 84.929 635.771 83.407 L 635.771 83.407 L 635.771 83.407 Q 638.612 81.886 641.589 78.843 L 641.589 78.843 L 641.589 46.386 L 641.589 46.386 Q 637.53 44.966 634.553 44.154 L 634.553 44.154 L 634.553 44.154 Q 631.577 43.343 628.736 43.343 L 628.736 43.343 L 628.736 43.343 Q 620.076 43.343 615.95 49.023 L 615.95 49.023 L 615.95 49.023 Q 611.823 54.703 611.823 64.136 L 611.823 64.136 L 611.823 64.136 Q 611.823 73.467 615.747 79.198 L 615.747 79.198 L 615.747 79.198 Q 619.67 84.929 627.382 84.929 L 627.382 84.929 Z  M 673.358 87.971 L 673.358 52.471 L 673.358 52.471 Q 673.358 47.299 671.464 44.814 L 671.464 44.814 L 671.464 44.814 Q 669.57 42.329 663.887 42.329 L 663.887 42.329 L 662.534 42.329 L 662.534 40.3 L 673.358 40.3 L 673.358 40.3 Q 678.5 40.3 681.138 41.365 L 681.138 41.365 L 681.138 41.365 Q 683.776 42.43 684.859 44.864 L 684.859 44.864 L 685.535 44.864 L 685.535 44.864 Q 687.971 42.531 692.097 40.909 L 692.097 40.909 L 692.097 40.909 Q 696.224 39.286 701.771 39.286 L 701.771 39.286 L 701.771 39.286 Q 707.183 39.286 709.889 40.807 L 709.889 40.807 L 709.889 40.807 Q 712.19 42.126 714.625 45.371 L 714.625 45.371 L 709.213 48.414 L 709.213 48.414 Q 707.725 46.893 704.883 46.132 L 704.883 46.132 L 704.883 46.132 Q 702.042 45.371 698.389 45.371 L 698.389 45.371 L 698.389 45.371 Q 694.33 45.371 690.947 46.741 L 690.947 46.741 L 690.947 46.741 Q 687.565 48.11 685.535 50.443 L 685.535 50.443 L 685.535 87.971 L 673.358 87.971 Z " fill="rgb(49,123,78)" vector-effect="non-scaling-stroke" stroke-width="0.5" stroke="rgb(255,255,255)" stroke-linejoin="miter" stroke-linecap="square" stroke-miterlimit="3" style="mix-blend-mode:hard-light;"/></g></g><g style="isolation:isolate"/></g></svg>