<?xml version="1.0" encoding="UTF-8" standalone="no"?><!-- Generator: Gravit.io --><svg xmlns="http://www.w3.org/2000/svg" xmlns:xlink="http://www.w3.org/1999/xlink" style="isolation:isolate" viewBox="0 0 185.888 163" width="185.888pt" height="163pt"><defs><clipPath id="_clipPath_L6oj7NF4eMxf8NZ68B0Gdrh1KNNh5sdN"><rect width="185.888" height="163"/></clipPath></defs><g clip-path="url(#_clipPath_L6oj7NF4eMxf8NZ68B0Gdrh1KNNh5sdN)"><g><defs><filter id="iiDxOyYtk0CxNkUBUFB6veWiHnrGl10K" x="-200%" y="-200%" width="400%" height="400%" filterUnits="objectBoundingBox" color-interpolation-filters="sRGB"><feGaussianBlur xmlns="http://www.w3.org/2000/svg" in="SourceGraphic" stdDeviation="2.576165437703417"/><feOffset xmlns="http://www.w3.org/2000/svg" dx="0" dy="0" result="pf_100_offsetBlur"/><feFlood xmlns="http://www.w3.org/2000/svg" flood-color="#000000" flood-opacity="0.69"/><feComposite xmlns="http://www.w3.org/2000/svg" in2="pf_100_offsetBlur" operator="in" result="pf_100_dropShadow"/><feBlend xmlns="http://www.w3.org/2000/svg" in="SourceGraphic" in2="pf_100_dropShadow" mode="normal" result="_out_bInyfXN242yfvoxdQijdvUhWEeMjqA6J"/><feOffset xmlns="http://www.w3.org/2000/svg" in="_out_bInyfXN242yfvoxdQijdvUhWEeMjqA6J" dx="0" dy="0"/><feGaussianBlur xmlns="http://www.w3.org/2000/svg" stdDeviation="7.299135406826348" result="pf_101_offsetBlur"/><feComposite xmlns="http://www.w3.org/2000/svg" in="_out_bInyfXN242yfvoxdQijdvUhWEeMjqA6J" in2="pf_101_offsetBlur" result="pf_101_inverse" operator="out"/><feFlood xmlns="http://www.w3.org/2000/svg" flood-color="#000000" flood-opacity="0.99" result="pf_101_color"/><feComposite xmlns="http://www.w3.org/2000/svg" in="pf_101_color" in2="pf_101_inverse" operator="in" result="pf_101_shadow"/><feComposite xmlns="http://www.w3.org/2000/svg" in="pf_101_shadow" in2="_out_bInyfXN242yfvoxdQijdvUhWEeMjqA6J" operator="over" result="_out_IwOkHkLfL3YDsyfxYOM12EtFFWcBCcnm"/><feMerge><feMergeNode in="_out_IwOkHkLfL3YDsyfxYOM12EtFFWcBCcnm"/></feMerge></filter></defs><g filter="url(#iiDxOyYtk0CxNkUBUFB6veWiHnrGl10K)"><ellipse vector-effect="non-scaling-stroke" cx="92.94421906077821" cy="81.5" rx="82.44421906077821" ry="71" fill="none"/><g style="isolation: isolate;"><ellipse vector-effect="non-scaling-stroke" cx="92.94421906077821" cy="81.5" rx="82.44421906077821" ry="71" fill="none" stroke-width="5" stroke="rgb(49,123,78)" stroke-linejoin="miter" stroke-linecap="square" stroke-miterlimit="3"/><ellipse vector-effect="non-scaling-stroke" cx="92.94421906077821" cy="81.5" rx="82.44421906077821" ry="71" fill="none" stroke-width="2" stroke="rgb(210,205,178)" stroke-linejoin="miter" stroke-linecap="square" stroke-miterlimit="3"/></g></g><defs><filter id="mKKEp6059wihOGyi4mK4Skzj8mCdNqkE" x="-200%" y="-200%" width="400%" height="400%" filterUnits="objectBoundingBox" color-interpolation-filters="sRGB"><feGaussianBlur xmlns="http://www.w3.org/2000/svg" in="SourceGraphic" stdDeviation="5.581691781690736"/><feOffset xmlns="http://www.w3.org/2000/svg" dx="0" dy="0" result="pf_100_offsetBlur"/><feFlood xmlns="http://www.w3.org/2000/svg" flood-color="#296841" flood-opacity="1"/><feComposite xmlns="http://www.w3.org/2000/svg" in2="pf_100_offsetBlur" operator="in" result="pf_100_dropShadow"/><feBlend xmlns="http://www.w3.org/2000/svg" in="SourceGraphic" in2="pf_100_dropShadow" mode="normal" result="_out_xMG3dCwfXuOdM4x9HRYAgAhof9IwrtKr"/><feOffset xmlns="http://www.w3.org/2000/svg" in="_out_xMG3dCwfXuOdM4x9HRYAgAhof9IwrtKr" dx="0" dy="0"/><feGaussianBlur xmlns="http://www.w3.org/2000/svg" stdDeviation="2.146804531419514" result="pf_101_offsetBlur"/><feComposite xmlns="http://www.w3.org/2000/svg" in="_out_xMG3dCwfXuOdM4x9HRYAgAhof9IwrtKr" in2="pf_101_offsetBlur" result="pf_101_inverse" operator="out"/><feFlood xmlns="http://www.w3.org/2000/svg" flood-color="#000000" flood-opacity="0.78" result="pf_101_color"/><feComposite xmlns="http://www.w3.org/2000/svg" in="pf_101_color" in2="pf_101_inverse" operator="in" result="pf_101_shadow"/><feComposite xmlns="http://www.w3.org/2000/svg" in="pf_101_shadow" in2="_out_xMG3dCwfXuOdM4x9HRYAgAhof9IwrtKr" operator="over" result="_out_ZiCESRjinHYK3fIGxwdxyLVghTKbZ6dD"/><feMerge><feMergeNode in="_out_ZiCESRjinHYK3fIGxwdxyLVghTKbZ6dD"/></feMerge></filter></defs><g filter="url(#mKKEp6059wihOGyi4mK4Skzj8mCdNqkE)"><path d=" M 64.705 115.559 L 64.705 115.559 Q 53.572 115.559 43.186 110.69 L 43.186 110.69 L 43.186 110.69 Q 32.801 105.822 26.971 97.454 L 26.971 97.454 L 26.971 97.454 Q 21.142 89.086 21.142 79.045 L 21.142 79.045 L 21.142 79.045 Q 21.142 68.409 26.234 60.548 L 26.234 60.548 L 26.234 60.548 Q 31.352 53.337 40.774 48.123 L 40.774 48.123 L 40.774 48.123 Q 51.254 43.498 60.685 43.559 L 60.685 43.559 L 60.685 43.559 Q 76.392 43.309 85.142 51.659 L 85.142 41.762 L 89.595 43.762 Q 91.198 63.396 91.198 68.366 L 91.198 68.366 L 87.517 68.366 L 87.517 68.366 Q 82.704 50.206 64.705 48.616 L 64.705 48.616 L 64.705 48.616 Q 56.317 48.194 48.614 52.927 L 48.614 52.927 L 48.614 52.927 Q 41.377 57.238 37.96 64.135 L 37.96 64.135 L 37.96 64.135 Q 34.543 71.032 34.543 79.045 L 34.543 79.045 L 34.543 79.045 Q 34.543 96.186 43.387 103.844 L 43.387 103.844 L 43.387 103.844 Q 50.232 111.502 64.705 111.502 L 64.705 111.502 L 64.705 111.502 Q 66.54 111.502 71.364 110.589 L 71.364 110.589 L 71.364 110.589 Q 76.188 109.676 80.477 107.952 L 80.477 107.952 L 80.477 89.303 L 80.477 89.303 Q 81.64 84.011 87.311 81.599 Q 91.116 79.98 99.588 81.436 L 99.588 83.465 L 99.588 83.465 Q 93.309 83.609 93.548 83.797 L 93.548 83.797 L 93.548 83.797 Q 92.538 85.13 92.538 90.1 L 92.538 90.1 L 92.538 109.169 L 92.538 109.169 Q 90.316 108.774 85.822 109.372 C 81.799 110.225 72.864 115.727 64.705 115.559 L 64.705 115.559 Z  M 125.434 116.372 C 118.35 116.247 109.752 112.243 103.553 110.078 C 99.952 108.82 97.16 108.844 95.944 108.88 L 95.944 108.88 L 95.944 87.028 L 99.356 87.028 L 99.356 87.028 Q 100.635 102.17 107.201 106.684 L 107.201 106.684 L 107.201 106.684 Q 113.768 111.197 125.292 111.197 L 125.292 111.197 L 125.292 111.197 Q 132.529 111.197 137.688 108.459 L 137.688 108.459 L 137.688 108.459 Q 142.848 105.72 142.848 100.852 L 142.848 100.852 L 142.848 100.852 Q 142.848 96.592 139.364 93.447 L 139.364 93.447 L 139.364 93.447 Q 135.879 90.303 128.107 86.855 L 128.107 86.855 L 111.623 79.45 L 111.623 79.45 Q 103.047 75.596 99.496 71.64 L 99.496 71.64 L 99.496 71.64 Q 95.944 67.685 95.944 62.005 L 95.944 62.005 L 95.944 62.005 Q 95.944 54.195 103.114 49.478 L 103.114 49.478 L 103.114 49.478 Q 110.283 44.762 121.942 44.762 L 121.942 44.762 L 121.942 44.762 Q 128.777 44.762 135.477 46.233 L 135.477 46.233 L 135.477 46.233 Q 142.892 48.809 145.892 52.027 Q 146.129 52.133 146.664 41.533 L 150.888 43.232 L 151.888 68.786 L 148.476 68.786 L 148.476 68.786 Q 146.198 57.643 139.833 53.231 L 139.833 53.231 L 139.833 53.231 Q 133.467 48.819 121.942 48.819 L 121.942 48.819 L 121.942 48.819 Q 115.778 48.819 111.087 51.659 L 111.087 51.659 L 111.087 51.659 Q 106.397 54.499 106.397 59.063 L 106.397 59.063 L 106.397 59.063 Q 106.397 63.222 109.814 65.96 L 109.814 65.96 L 109.814 65.96 Q 113.232 68.699 121.272 72.35 L 121.272 72.35 L 137.755 79.755 L 137.755 79.755 Q 146.868 83.913 150.62 87.463 L 150.62 87.463 L 150.62 87.463 Q 155.373 92.013 155.373 97.49 L 155.373 97.49 L 155.373 97.49 Q 155.892 107.809 147.868 112.133 L 147.868 112.133 L 147.868 112.133 Q 138.161 117.292 125.434 116.372 Z " fill="rgb(201,221,141)" vector-effect="non-scaling-stroke" stroke-width="1.5" stroke="rgb(49,123,78)" stroke-linejoin="miter" stroke-linecap="square" stroke-miterlimit="3" style="mix-blend-mode:hard-light;"/></g></g></g></svg>