<svg id="Capa_1" enable-background="new 0 0 497.016 497.016" height="512" viewBox="0 0 497.016 497.016" width="512" xmlns="http://www.w3.org/2000/svg"><g><path d="m487.196 53.625c-15.89-19.85-45.1-22.48-64.29-5.81l-19.363 46.84 32.46 32.46 42.793-9.49c11.94-8.8 18.22-22.36 18.22-36.08 0-9.79-3.199-19.66-9.82-27.92z" fill="#fae2c0"/><path d="m344.516 135.912-37.949 29.803-54.01 52.19-20.769 12.58 25.191 33.195 17.057-18.945 62.75-41.28 37.351-28.196z" fill="#cbc4cc"/><path d="m344.516 135.912-37.949 29.803-54.01 52.19-5.984 3.625 12.263 14.153 1.586.594 55.964-49.402 37.949-29.804 15.906 21.129 3.896-2.941z" fill="#b5adb6"/><path d="m245.797 214.979-36.221 4.146h-73.042l99.56 123.866 27.351-56.576 11.972-34.44c.833-2.396.376-5.052-1.209-7.032l-21.815-27.246c-1.584-1.98-4.076-3.006-6.596-2.718z" fill="#b5adb6"/><path d="m260.207 233.231 4.235-.485-12.049-15.049c-1.585-1.98-4.077-3.007-6.597-2.718l-17.175 1.966-19.046 2.18h-39.465l79.653 95.593 13.683-28.303 6.592-18.963-15.8-19.735c-4.4-5.495-1.025-13.686 5.969-14.486z" fill="#a79ba7"/><path d="m302.977 335.795c2.21 2.75 1.77 6.78-.99 8.98l-96.2 77.02c-41.7 33.39-96.37 45.89-148.44 33.95l-46.16-10.58c-6.09-1.4-10.43-6.78-10.52-13.02l-.65-48.01c-.74-53.96 23.46-105.24 65.59-138.96l95.45-76.42c2.76-2.21 6.78-1.77 8.98.99z" fill="#e2dee2"/><path d="m54.006 423.98c-.74-53.96 23.46-105.24 65.59-138.96l86.982-69.64-36.541-45.635c-2.2-2.76-6.22-3.2-8.98-.99l-95.45 76.42c-42.13 33.72-66.33 85-65.59 138.96l.65 48.01c.09 6.24 4.43 11.62 10.52 13.02l43.24 9.911z" fill="#cbc4cc"/><g><g id="XMLID_101_"><g><path d="m422.906 47.815 55.89 69.81-122.65 90.29c-5.55 4.09-13.34 3.06-17.65-2.32l-1.71-2.14-30.22-37.74-.2-.25c-4.3-5.38-3.6-13.2 1.6-17.73z" fill="#fdd79b"/><path d="m427.255 90.873c19.19-16.67 48.4-14.04 64.29 5.81.658.821 1.272 1.661 1.862 2.512 2.386-5.59 3.609-11.604 3.609-17.65 0-9.79-3.2-19.66-9.82-27.92-15.89-19.85-45.1-22.48-64.29-5.81l-19.363 46.84 9.004 9.004z" fill="#fddeb0"/><path d="m427.255 90.873c6.447-5.6 14.026-9.012 21.849-10.335l-26.198-32.723-114.94 99.92c-5.2 4.53-5.9 12.35-1.6 17.73l.2.25 14.199 17.732z" fill="#fccd7f"/><path d="m230.486 289.295c2.33 3.42 1.45 8.09-1.98 10.42l-77.12 52.5c-4.17 2.84-8.97 4.21-13.73 4.21-7.23 0-14.39-3.17-19.18-9.15-7.95-9.93-6.9-24.51 2.38-33.2l68.09-63.77c3.03-2.83 7.77-2.68 10.6.35 2.84 3.02 2.68 7.77-.34 10.6l-68.1 63.77c-3.6 3.37-4 9.02-.92 12.87s8.68 4.69 12.76 1.92l77.12-52.5c3.431-2.33 8.09-1.44 10.42 1.98z" fill="#cbc4cc"/></g></g></g></g></svg>